# xmcd
#
# Track frame offsets: 
#        150
#        12628
#        29520
#        40293
#        54162
#        68219
#        80602
#        95921
#        104589
#        114627
#        126462
#        139956
#        150972
#        165684
#
# Disc length: 2525 seconds
#
# Revision: 0
# Processed by: cddbd v1.5.2PL0 Copyright (c) Steve Scherf et al.
# Submitted via: ExactAudioCopy v1.0b3
#
DISCID=c709db0e
DTITLE=Jim Smoak - Carolina Boy
DYEAR=2004
DGENRE=Bluegrass
TTITLE0=Back Home In Indiana
TTITLE1=Carolina Boy
TTITLE2=Goin' Back To Harlan
TTITLE3=Pickin' In The Pokey
TTITLE4=Goodbye Jim
TTITLE5=I'll Fly Away
TTITLE6=Old Shanty Town
TTITLE7=Carolina Home
TTITLE8=Charleston Western Carolina Railroad
TTITLE9=Swing That Pretty Girl Round
TTITLE10=Let The Lower Lights Be Burning
TTITLE11=Leave It Alone
TTITLE12=Steel Goin' Down
TTITLE13=Cookin' In The Kitchen
EXTD=
EXTT0=
EXTT1=
EXTT2=
EXTT3=
EXTT4=
EXTT5=
EXTT6=
EXTT7=
EXTT8=
EXTT9=
EXTT10=
EXTT11=
EXTT12=
EXTT13=
PLAYORDER=
